<svg width="38" height="40" viewBox="0 0 38 40" fill="none" xmlns="http://www.w3.org/2000/svg">
<g clip-path="url(#clip0_138_1671)">
<path d="M0 7.52505L0 32.1707C0 36.2542 3.18997 39.5645 7.125 39.5645H30.875C34.81 39.5645 38 36.2542 38 32.1707V7.52505C38 3.44162 34.81 0.131348 30.875 0.131348H7.125C3.18997 0.131348 0 3.44162 0 7.52505Z" fill="#F4F4F4"/>
<path d="M20.504 30.1006H16.4601V20.044H14.4395V16.5788H16.4601V14.4983C16.4601 11.6716 17.6005 9.98975 20.8425 9.98975H23.5408V13.4562H21.8543C20.5922 13.4562 20.5089 13.9404 20.5089 14.8442L20.5034 16.5788H23.5595L23.2018 20.044H20.5034L20.504 30.1006Z" fill="#242424"/>
</g>
<defs>
<clipPath id="clip0_138_1671">
<rect width="38" height="39.4331" fill="white" transform="translate(0 0.131348)"/>
</clipPath>
</defs>
</svg>
