<svg width="38" height="40" viewBox="0 0 38 40" fill="none" xmlns="http://www.w3.org/2000/svg">
<g clip-path="url(#clip0_138_1674)">
<path d="M0 7.52505L0 32.1707C0 36.2542 3.18997 39.5645 7.125 39.5645H30.875C34.81 39.5645 38 36.2542 38 32.1707V7.52505C38 3.44162 34.81 0.131348 30.875 0.131348H7.125C3.18997 0.131348 0 3.44162 0 7.52505Z" fill="#F4F4F4"/>
<path d="M19 14.9189C18.0606 14.9189 17.1422 15.208 16.361 15.7496C15.5799 16.2912 14.971 17.0611 14.6116 17.9618C14.252 18.8624 14.158 19.8534 14.3413 20.8097C14.5245 21.7658 14.977 22.6441 15.6413 23.3334C16.3056 24.0228 17.1519 24.4923 18.0733 24.6824C18.9948 24.8727 19.9498 24.7751 20.8177 24.4019C21.6857 24.0289 22.4276 23.3971 22.9495 22.5865C23.4714 21.7759 23.75 20.8229 23.75 19.848C23.75 18.5407 23.2496 17.287 22.3587 16.3626C21.468 15.4382 20.2598 14.9189 19 14.9189ZM19 22.8055C18.4363 22.8055 17.8853 22.632 17.4166 22.307C16.948 21.9821 16.5826 21.5202 16.367 20.9798C16.1512 20.4394 16.0948 19.8447 16.2047 19.2711C16.3147 18.6973 16.5862 18.1704 16.9847 17.7567C17.3833 17.3432 17.8911 17.0615 18.444 16.9473C18.9968 16.8332 19.5699 16.8918 20.0906 17.1157C20.6114 17.3395 21.0565 17.7186 21.3697 18.2049C21.6828 18.6913 21.85 19.2631 21.85 19.848C21.85 20.6324 21.5497 21.3847 21.0153 21.9393C20.4808 22.4939 19.7558 22.8055 19 22.8055ZM23.75 13.9331C23.5621 13.9331 23.3784 13.9909 23.2222 14.0992C23.066 14.2075 22.9442 14.3615 22.8723 14.5417C22.8004 14.7217 22.7816 14.92 22.8183 15.1112C22.8549 15.3025 22.9453 15.4781 23.0782 15.616C23.2111 15.7539 23.3803 15.8478 23.5646 15.8857C23.7489 15.9238 23.94 15.9043 24.1135 15.8297C24.2871 15.7551 24.4355 15.6287 24.5399 15.4666C24.6443 15.3045 24.7 15.1138 24.7 14.9189C24.7 14.6574 24.5999 14.4066 24.4218 14.2218C24.2436 14.0369 24.002 13.9331 23.75 13.9331ZM28.443 16.1413C28.4272 15.2988 28.2731 14.4654 27.987 13.6767C27.7217 12.9592 27.314 12.3074 26.7902 11.7639C26.2666 11.2205 25.6385 10.7973 24.947 10.5221C24.187 10.2253 23.3839 10.0652 22.572 10.0489C21.6505 9.98975 21.3465 9.98975 19 9.98975C16.6535 9.98975 16.3495 9.98975 15.428 10.0489C14.6161 10.0652 13.813 10.2253 13.053 10.5221C12.3615 10.7973 11.7334 11.2205 11.2097 11.7639C10.686 12.3074 10.2783 12.9592 10.013 13.6767C9.72696 14.4654 9.57273 15.2988 9.557 16.1413C9.5 17.1074 9.5 17.4229 9.5 19.848C9.5 22.2732 9.5 22.5886 9.557 23.5547C9.57273 24.3972 9.72696 25.2306 10.013 26.0193C10.2783 26.7369 10.686 27.3886 11.2097 27.9321C11.7334 28.4756 12.3615 28.8987 13.053 29.174C13.813 29.4708 14.6161 29.6308 15.428 29.6471C16.378 29.6471 16.6535 29.7063 19 29.7063C21.3465 29.7063 21.6505 29.7063 22.572 29.6471C23.3839 29.6308 24.187 29.4708 24.947 29.174C25.6385 28.8987 26.2666 28.4756 26.7902 27.9321C27.314 27.3886 27.7217 26.7369 27.987 26.0193C28.2731 25.2306 28.4272 24.3972 28.443 23.5547C28.443 22.5689 28.5 22.2732 28.5 19.848C28.5 17.4229 28.5 17.1074 28.443 16.1413ZM26.543 23.466C26.5264 24.0916 26.4142 24.7105 26.2105 25.2996C26.0421 25.7653 25.776 26.1863 25.4315 26.5319C25.1003 26.8897 24.6939 27.163 24.244 27.3305C23.675 27.5504 23.0745 27.6703 22.4675 27.6854C21.5745 27.6854 21.299 27.7346 18.9905 27.7346C16.682 27.7346 16.416 27.7346 15.523 27.7346C14.9169 27.7184 14.3172 27.6019 13.7465 27.3896C13.2977 27.2149 12.8921 26.9387 12.559 26.5812C12.2143 26.2375 11.9509 25.8159 11.7895 25.3489C11.5784 24.7616 11.4628 24.1419 11.4475 23.5153C11.4475 22.5295 11.4475 22.283 11.4475 19.8973C11.4475 17.5116 11.4475 17.2257 11.4475 16.2793C11.4639 15.6496 11.5794 15.0268 11.7895 14.4358C11.9534 13.9731 12.2165 13.5551 12.559 13.2134C12.8902 12.8557 13.2966 12.5824 13.7465 12.4149C14.3156 12.1949 14.9159 12.075 15.523 12.06C16.416 11.9614 16.6915 11.9614 19 11.9614C21.3085 11.9614 21.584 11.9614 22.477 11.9614C23.087 11.9775 23.6904 12.0974 24.263 12.3163C24.7089 12.4864 25.1117 12.7594 25.441 13.1148C25.7857 13.4585 26.0491 13.8802 26.2105 14.3471C26.443 14.947 26.5748 15.5839 26.6 16.23C26.6 17.2159 26.6475 17.4623 26.6475 19.848C26.6475 22.2337 26.6 22.5196 26.6 23.466H26.543Z" fill="#242424"/>
</g>
<defs>
<clipPath id="clip0_138_1674">
<rect width="38" height="39.4331" fill="white" transform="translate(0 0.131348)"/>
</clipPath>
</defs>
</svg>
