<svg width="160" height="50" viewBox="0 0 160 50" fill="none" xmlns="http://www.w3.org/2000/svg">
<rect width="160" height="50" fill="#D9D9D9"/>
<path d="M49.5369 36H46.767L54.7784 14.1818H57.5057L65.517 36H62.7472L56.2273 17.6335H56.0568L49.5369 36ZM50.5597 27.4773H61.7244V29.821H50.5597V27.4773ZM71.5575 14.1818V36H68.9155V14.1818H71.5575ZM76.8549 36V14.1818H84.2271C85.9316 14.1818 87.3308 14.473 88.4245 15.0554C89.5183 15.6307 90.3279 16.4226 90.8535 17.4311C91.3791 18.4396 91.6419 19.5866 91.6419 20.8722C91.6419 22.1577 91.3791 23.2976 90.8535 24.2919C90.3279 25.2862 89.5218 26.0675 88.4352 26.6357C87.3485 27.1967 85.9601 27.4773 84.2697 27.4773H78.3038V25.0909H84.1845C85.3493 25.0909 86.2868 24.9205 86.997 24.5795C87.7143 24.2386 88.2328 23.7557 88.5524 23.1307C88.8791 22.4986 89.0424 21.7457 89.0424 20.8722C89.0424 19.9986 88.8791 19.2351 88.5524 18.5817C88.2257 17.9283 87.7037 17.424 86.9863 17.0689C86.269 16.7067 85.3208 16.5256 84.1419 16.5256H79.497V36H76.8549ZM87.1248 26.1989L92.4941 36H89.426L84.1419 26.1989H87.1248ZM96.9393 36H94.1694L102.181 14.1818H104.908L112.919 36H110.15L103.63 17.6335H103.459L96.9393 36ZM97.962 27.4773H109.127V29.821H97.962V27.4773Z" fill="black"/>
</svg>
