<svg width="38" height="40" viewBox="0 0 38 40" fill="none" xmlns="http://www.w3.org/2000/svg">
<g clip-path="url(#clip0_138_1668)">
<path d="M0 7.52505L0 32.1707C0 36.2542 3.18997 39.5645 7.125 39.5645H30.875C34.81 39.5645 38 36.2542 38 32.1707V7.52505C38 3.44162 34.81 0.131348 30.875 0.131348H7.125C3.18997 0.131348 0 3.44162 0 7.52505Z" fill="#F4F4F4"/>
<path d="M28.7513 10.4115C28.4808 10.178 28.1544 10.025 27.8067 9.96872C27.4591 9.91243 27.1032 9.95502 26.7771 10.0919L9.75217 17.2247C9.38809 17.3802 9.07817 17.6469 8.86354 17.9893C8.64893 18.3319 8.53976 18.734 8.55053 19.1424C8.5613 19.5508 8.6915 19.9461 8.92386 20.276C9.1562 20.6057 9.47971 20.8544 9.85145 20.989L13.2952 22.2318L15.2146 28.8188C15.2408 28.9068 15.2786 28.9906 15.3271 29.0676C15.3345 29.0794 15.3449 29.0883 15.3527 29.0997C15.4088 29.1809 15.4765 29.2527 15.5536 29.3124C15.5755 29.3298 15.5964 29.3461 15.6199 29.3615C15.7101 29.4235 15.8099 29.4689 15.9151 29.4955L15.9263 29.4965L15.9327 29.4994C15.9959 29.5128 16.0603 29.5196 16.1247 29.5197C16.1309 29.5197 16.1365 29.5166 16.1427 29.5165C16.2399 29.5146 16.3365 29.4973 16.4286 29.4649C16.4501 29.4573 16.4685 29.4446 16.4893 29.4354C16.5581 29.4058 16.6233 29.368 16.6833 29.3225C16.7316 29.2804 16.7798 29.2382 16.828 29.1961L19.395 26.255L23.2239 29.3329C23.5609 29.6052 23.9758 29.7532 24.4029 29.7536C24.8506 29.753 25.2844 29.5928 25.6316 29.2996C25.979 29.0066 26.2186 28.5986 26.3104 28.1438L29.4099 12.3543C29.4802 11.9989 29.456 11.6304 29.34 11.2882C29.2239 10.946 29.0204 10.643 28.7513 10.4115ZM16.5014 22.5457C16.3697 22.6819 16.2797 22.8554 16.2427 23.0444L15.9486 24.5271L15.2037 21.9707L19.0657 19.8838L16.5014 22.5457ZM24.3881 27.7742L19.8636 24.1371C19.6743 23.9853 19.4368 23.913 19.1985 23.9349C18.9603 23.9565 18.7385 24.0708 18.5778 24.2545L17.7555 25.1961L18.0461 23.7308L24.775 16.7482C24.9356 16.5817 25.0335 16.3611 25.0508 16.1262C25.0682 15.8914 25.0039 15.6578 24.8697 15.4678C24.7354 15.2779 24.5401 15.1442 24.319 15.0909C24.098 15.0375 23.8657 15.0681 23.6645 15.177L14.0074 20.3946L10.4693 19.0511L27.5488 11.9605L24.3881 27.7742Z" fill="#242424"/>
</g>
<defs>
<clipPath id="clip0_138_1668">
<rect width="38" height="39.4331" fill="white" transform="translate(0 0.131348)"/>
</clipPath>
</defs>
</svg>
