<svg width="38" height="40" viewBox="0 0 38 40" fill="none" xmlns="http://www.w3.org/2000/svg">
<g clip-path="url(#clip0_138_1677)">
<path d="M0 7.52505L0 32.1707C0 36.2542 3.18997 39.5645 7.125 39.5645H30.875C34.81 39.5645 38 36.2542 38 32.1707V7.52505C38 3.44162 34.81 0.131348 30.875 0.131348H7.125C3.18997 0.131348 0 3.44162 0 7.52505Z" fill="#F4F4F4"/>
<path d="M21.5213 19.848L17.5776 22.1865V17.5095L21.5213 19.848Z" fill="black" stroke="black" stroke-width="1.5" stroke-linecap="round" stroke-linejoin="round"/>
<path d="M8 20.6752V19.0206C8 15.6352 8 13.9425 9.02026 12.8534C10.0405 11.7643 11.6468 11.7171 14.8593 11.6228C16.3816 11.5782 17.9366 11.5461 19.2675 11.5461C20.5984 11.5461 22.1535 11.5782 23.6757 11.6228C26.8882 11.7171 28.4945 11.7643 29.5148 12.8534C30.5351 13.9425 30.5351 15.6352 30.5351 19.0206V20.6752C30.5351 24.0605 30.5351 25.7532 29.5148 26.8422C28.4945 27.9314 26.8883 27.9785 23.6758 28.0729C22.1535 28.1175 20.5984 28.1496 19.2675 28.1496C17.9366 28.1496 16.3815 28.1175 14.8592 28.0729C11.6467 27.9785 10.0405 27.9314 9.02025 26.8422C8 25.7532 8 24.0605 8 20.6752Z" stroke="black" stroke-width="1.5"/>
</g>
<defs>
<clipPath id="clip0_138_1677">
<rect width="38" height="39.4331" fill="white" transform="translate(0 0.131348)"/>
</clipPath>
</defs>
</svg>
